<?xml version="1.0" encoding="UTF-8" standalone="no"?>
<!-- Created with Inkscape (http://www.inkscape.org/) -->

<svg
   xmlns:dc="http://purl.org/dc/elements/1.1/"
   xmlns:cc="http://creativecommons.org/ns#"
   xmlns:rdf="http://www.w3.org/1999/02/22-rdf-syntax-ns#"
   xmlns:svg="http://www.w3.org/2000/svg"
   xmlns="http://www.w3.org/2000/svg"
   xmlns:sodipodi="http://sodipodi.sourceforge.net/DTD/sodipodi-0.dtd"
   xmlns:inkscape="http://www.inkscape.org/namespaces/inkscape"
   width="3.5356116mm"
   height="3.9365158mm"
   viewBox="0 0 3.5356116 3.9365158"
   version="1.1"
   id="svg8"
   sodipodi:docname="close.svg"
   inkscape:version="0.92.0 r15299">
  <defs
     id="defs2" />
  <sodipodi:namedview
     id="base"
     pagecolor="#ffffff"
     bordercolor="#666666"
     borderopacity="1.0"
     inkscape:pageopacity="0.0"
     inkscape:pageshadow="2"
     inkscape:zoom="15.839192"
     inkscape:cx="-2.9510726"
     inkscape:cy="0.5745411"
     inkscape:document-units="mm"
     inkscape:current-layer="layer1"
     showgrid="false"
     fit-margin-top="0"
     fit-margin-left="0"
     fit-margin-right="0"
     fit-margin-bottom="0"
     inkscape:window-width="1920"
     inkscape:window-height="1018"
     inkscape:window-x="-8"
     inkscape:window-y="-8"
     inkscape:window-maximized="1" />
  <metadata
     id="metadata5">
    <rdf:RDF>
      <cc:Work
         rdf:about="">
        <dc:format>image/svg+xml</dc:format>
        <dc:type
           rdf:resource="http://purl.org/dc/dcmitype/StillImage" />
        <dc:title></dc:title>
      </cc:Work>
    </rdf:RDF>
  </metadata>
  <g
     inkscape:label="Ebene 1"
     inkscape:groupmode="layer"
     id="layer1"
     transform="translate(-100.66375,-142.70734)">
    <path
       style="opacity:0;fill:#000000;fill-opacity:1;stroke:#ffffff;stroke-width:1.54999995;stroke-linejoin:round;stroke-miterlimit:3.86400008;stroke-dasharray:none;stroke-opacity:1"
       id="path4504"
       d="m 102.16082,144.09406 c -0.006,-0.0254 -0.0102,-0.0513 -0.013,-0.0772 -0.002,-0.0192 -0.002,-0.0386 -0.003,-0.0579 1.5e-4,-0.0169 -5.9e-4,-0.0339 7.1e-4,-0.0509 0.003,-0.0161 0.004,-0.0325 0.008,-0.0484 0.003,-0.0131 0.009,-0.0254 0.0131,-0.0382 0.004,-0.0121 0.01,-0.0236 0.015,-0.0354 0.005,-0.0114 0.013,-0.0208 0.0207,-0.0303 0.0371,-0.039 0.0857,-0.0563 0.1344,-0.0841 -0.26686,0.1534 0.007,-0.004 0.0104,-0.006 0.002,-0.001 0.004,-0.001 0.006,-0.002 0.006,-0.003 0.0102,-0.006 0.0167,-0.008 0.006,-0.007 0.0154,-0.007 0.0235,-0.01 0.004,-0.001 0.008,-0.004 0.0114,-0.005 0.009,-0.004 0.0189,-0.003 0.0282,-0.005 0.004,-9.2e-4 0.008,-0.003 0.0128,-0.004 0.0147,-0.004 0.0298,-0.004 0.0449,-0.005 0.0166,-3.6e-4 0.0332,-2.8e-4 0.0498,-2.5e-4 0.0147,8.8e-4 0.0306,0.003 0.0443,0.009 0.0119,0.005 0.0226,0.012 0.0338,0.0182 0.0142,0.005 0.0266,0.0131 0.039,0.0214 0.0147,0.007 0.03,0.0143 0.0438,0.0233 0.0143,0.009 0.029,0.018 0.0419,0.0291 0.0148,0.0116 0.0298,0.0228 0.0437,0.0354 0.0128,0.01 0.0257,0.0192 0.0385,0.0289 0.009,0.01 0.0203,0.0177 0.0308,0.0261 0.009,0.009 0.0158,0.0185 0.0246,0.0269 0.009,0.0108 0.0176,0.0218 0.0244,0.034 0.009,0.009 0.0151,0.0196 0.0216,0.0305 0.006,0.0125 0.0142,0.0239 0.0205,0.0363 0.005,0.0136 0.01,0.0271 0.0132,0.0411 0.003,0.0139 0.007,0.0271 0.01,0.041 0.002,0.0161 0.002,0.0324 0.003,0.0486 1.1e-4,0.0167 5e-5,0.0335 2e-5,0.0502 -3e-5,0.0167 -4e-5,0.0334 -4e-5,0.0502 -2.2e-4,0.0169 5.8e-4,0.0339 -6.8e-4,0.0508 -0.002,0.0163 -0.005,0.0324 -0.0104,0.0479 -0.004,0.009 -0.007,0.0189 -0.0107,0.0286 0,0 -0.11252,0.0521 -0.11252,0.0521 v 0 c 0.004,-0.009 0.006,-0.0196 0.0106,-0.0289 0.007,-0.0142 0.01,-0.0292 0.012,-0.0448 0.003,-0.0163 6.7e-4,-0.033 10e-4,-0.0495 1e-5,-0.0167 1e-5,-0.0334 4e-5,-0.0502 2e-5,-0.0167 8e-5,-0.0334 2e-5,-0.05 -1.1e-4,-0.0156 -1.6e-4,-0.0313 -0.002,-0.0469 -0.002,-0.0138 -0.007,-0.0267 -0.009,-0.0402 -0.003,-0.0132 -0.008,-0.0256 -0.0118,-0.0386 -0.006,-0.0122 -0.0141,-0.0232 -0.0202,-0.0354 -0.007,-0.011 -0.0137,-0.021 -0.0217,-0.0309 -0.006,-0.0112 -0.0144,-0.0213 -0.0228,-0.0309 -0.008,-0.008 -0.0153,-0.0175 -0.0237,-0.0255 -0.0109,-0.008 -0.0206,-0.0171 -0.0306,-0.0263 -0.0128,-0.0101 -0.0267,-0.0189 -0.0389,-0.0298 -0.0139,-0.0123 -0.0286,-0.0237 -0.0434,-0.035 -0.0129,-0.0102 -0.0271,-0.0189 -0.0411,-0.0276 -0.0144,-0.008 -0.0295,-0.0155 -0.044,-0.0236 -0.0123,-0.008 -0.0256,-0.0141 -0.0389,-0.0206 -0.0103,-0.006 -0.0208,-0.0124 -0.0322,-0.0161 -0.0138,-0.003 -0.0277,-0.006 -0.0419,-0.006 -0.0165,1e-5 -0.033,-4e-5 -0.0494,7.8e-4 -0.0147,9.8e-4 -0.0293,0.003 -0.0434,0.007 -0.0134,0.003 -0.0275,0.004 -0.0401,0.0102 -0.0117,0.005 -0.0237,0.009 -0.0348,0.0153 -0.1244,0.065 0.32616,-0.18531 -0.0329,0.0173 0.24832,-0.14441 0.0979,-0.0649 0.0774,-0.041 -0.009,0.007 -0.0165,0.0171 -0.0222,0.027 -0.007,0.0103 -0.0106,0.0229 -0.0156,0.0342 -0.003,0.006 -0.004,0.0123 -0.007,0.0187 -0.001,0.004 -0.004,0.007 -0.006,0.0112 -8.6e-4,0.002 -0.001,0.005 -0.002,0.007 -0.005,0.0154 -0.007,0.031 -0.009,0.0468 -0.003,0.0163 -7.5e-4,0.033 -10e-4,0.0495 10e-6,0.0191 6e-5,0.0381 10e-4,0.0572 0.002,0.0252 0.005,0.0506 0.0127,0.0748 0,0 -0.10887,0.0593 -0.10887,0.0593 z"
       inkscape:connector-curvature="0" />
    <path
       style="opacity:0;fill:#000000;fill-opacity:1;stroke:#ffffff;stroke-width:1.54999995;stroke-linejoin:round;stroke-miterlimit:3.86400008;stroke-dasharray:none;stroke-opacity:1"
       id="path4506"
       d="m 102.50918,144.82211 c 0.018,-0.0252 0.0345,-0.0514 0.0494,-0.0785 0.007,-0.0158 0.017,-0.0307 0.0237,-0.0469 0.006,-0.0142 0.009,-0.0294 0.0141,-0.0441 0.005,-0.0145 0.0103,-0.0287 0.0135,-0.0436 0.003,-0.0161 0.003,-0.0324 0.003,-0.0486 1.3e-4,-0.0167 5e-5,-0.0334 10e-6,-0.0501 1.1e-4,-0.016 5.3e-4,-0.0319 -0.002,-0.0478 -0.002,-0.0173 -0.007,-0.034 -0.0104,-0.051 -0.003,-0.017 -0.004,-0.0342 -0.004,-0.0514 -3.8e-4,-0.0157 7.4e-4,-0.0313 -0.002,-0.0467 -0.002,-0.0136 -0.007,-0.0262 -0.0103,-0.0394 -0.002,-0.0141 -0.006,-0.0276 -0.009,-0.0415 -0.002,-0.0129 -0.006,-0.0253 -0.0112,-0.0372 -0.006,-0.0103 -0.0131,-0.0206 -0.0184,-0.0315 -0.006,-0.01 -0.015,-0.0173 -0.0247,-0.0231 -0.0141,-0.006 -0.0294,-0.009 -0.0435,-0.0153 -0.0135,-0.006 -0.0281,-0.008 -0.0427,-0.009 -0.0163,-7.4e-4 -0.0326,-6.2e-4 -0.0488,-6e-4 -0.0167,5e-5 -0.0334,9e-5 -0.0501,1.1e-4 -0.014,0.004 -0.0284,0.006 -0.043,0.007 -0.0151,0.006 -0.0319,0.005 -0.047,0.0101 -0.0138,0.003 -0.0268,0.007 -0.0392,0.0137 -0.0142,0.007 -0.03,0.0102 -0.0439,0.0175 -0.0698,0.0304 0.33089,-0.18043 -0.0242,0.0131 -0.0341,0.0186 0.0673,-0.0386 0.10102,-0.0579 0.002,-0.001 -0.004,0.002 -0.005,0.003 -0.0587,0.0353 -0.24313,0.13741 -0.0278,0.0157 0.003,-0.002 -0.005,0.003 -0.008,0.005 -0.003,0.002 -0.006,0.004 -0.008,0.006 -0.017,0.0107 -0.0325,0.0236 -0.0484,0.0357 -0.0162,0.0134 -0.0326,0.0265 -0.0494,0.0392 -0.0129,0.009 -0.0242,0.0196 -0.0373,0.0282 -0.0114,0.0106 -0.0236,0.0203 -0.0351,0.0308 -0.0112,0.0101 -0.0227,0.0201 -0.032,0.032 -0.008,0.009 -0.0152,0.0198 -0.0222,0.0301 -0.008,0.0105 -0.0146,0.0215 -0.0199,0.0335 -0.005,0.0153 -0.007,0.0314 -0.0106,0.0472 -0.003,0.0162 -0.004,0.0327 -0.005,0.0493 -4.1e-4,0.0167 -3.5e-4,0.0333 -3.3e-4,0.05 3e-5,0.0167 5e-5,0.0334 6e-5,0.0501 1e-5,0.0167 1e-5,0.0334 1e-5,0.0501 0,0.0167 0,0.0334 0,0.0501 -1.3e-4,0.0164 0.003,0.0328 0.006,0.0488 0.003,0.0155 0.009,0.0298 0.0137,0.0449 0.002,0.0143 0.006,0.0281 0.009,0.0422 0.002,0.0149 0.006,0.0294 0.0113,0.0435 0.005,0.0123 0.01,0.0249 0.0148,0.0373 0.005,0.0115 0.009,0.0233 0.0151,0.0343 0.006,0.0104 0.0126,0.0205 0.0189,0.0308 0.008,0.01 0.0164,0.0196 0.0256,0.0284 0.008,0.0101 0.0186,0.018 0.0274,0.0277 0.009,0.008 0.0213,0.0146 0.0332,0.0188 0.0134,0.002 0.0258,0.008 0.0391,0.01 0.0136,0.003 0.0265,0.007 0.0404,0.009 0.0157,0.002 0.0314,0.002 0.0471,0.002 0.0167,3e-5 0.0334,-2e-5 0.0501,-5e-5 0.0167,-2e-5 0.0334,-3e-5 0.0502,-3e-5 0.0167,0 0.0334,0 0.0501,0 0.0167,0 0.0334,0 0.0501,0 0.0167,0 0.0334,0 0.0501,0 0.0167,0 0.0334,0 0.0501,0 0.0167,0 0.0334,0 0.0501,0 0.0147,-4.9e-4 0.0289,-0.005 0.0436,-0.007 0.0131,-0.003 0.0259,-0.007 0.0389,-0.0114 0,0 -0.0979,0.0757 -0.0979,0.0757 v 0 c -0.0132,0.004 -0.0266,0.008 -0.0403,0.01 -0.0148,0.002 -0.0294,0.006 -0.0445,0.005 -0.0167,0 -0.0334,0 -0.0501,0 -0.0167,0 -0.0334,0 -0.0501,0 -0.0167,0 -0.0334,0 -0.0501,0 -0.0167,0 -0.0334,0 -0.0501,0 -0.0167,0 -0.0334,0 -0.0501,1e-5 -0.0167,0 -0.0334,1e-5 -0.0501,4e-5 -0.0167,3e-5 -0.0334,9e-5 -0.0502,-5e-5 -0.0161,-2.4e-4 -0.0324,-4.8e-4 -0.0484,-0.003 -0.0138,-0.003 -0.027,-0.007 -0.0409,-0.01 -0.0136,-0.003 -0.027,-0.008 -0.0404,-0.0118 -0.0129,-0.006 -0.026,-0.0128 -0.036,-0.0232 -0.009,-0.009 -0.0189,-0.0174 -0.0272,-0.0273 -0.01,-0.01 -0.0187,-0.0202 -0.0273,-0.031 -0.006,-0.0105 -0.0131,-0.0207 -0.0192,-0.0314 -0.006,-0.0114 -0.0108,-0.0234 -0.0156,-0.0353 -0.005,-0.0124 -0.01,-0.0254 -0.0149,-0.0378 -0.005,-0.0146 -0.01,-0.0297 -0.0122,-0.0452 -0.003,-0.014 -0.008,-0.0274 -0.009,-0.0416 -0.004,-0.0153 -0.0109,-0.0296 -0.0137,-0.0453 -0.004,-0.0167 -0.007,-0.0342 -0.008,-0.0514 0,-0.0167 0,-0.0334 0,-0.0501 0,-0.0167 0,-0.0334 0,-0.0501 -10e-6,-0.0167 -2e-5,-0.0334 -5e-5,-0.0501 -3e-5,-0.0168 -1e-4,-0.0336 1.6e-4,-0.0503 3.9e-4,-0.0171 0.001,-0.0343 0.004,-0.0512 0.003,-0.0163 0.007,-0.0325 0.01,-0.0489 0.004,-0.0126 0.009,-0.026 0.0187,-0.0356 0.006,-0.0113 0.0137,-0.0217 0.0217,-0.0319 0.013,-0.0143 -0.004,0.005 0.009,-0.0117 0.006,-0.008 0.0162,-0.0137 0.0225,-0.0223 0.0124,-0.009 0.023,-0.0208 0.0352,-0.0303 0.009,-0.0109 0.027,-0.019 0.0372,-0.0299 0.0175,-0.0115 0.0338,-0.025 0.0497,-0.0386 0.0158,-0.0126 0.032,-0.0246 0.0479,-0.037 0.003,-0.002 0.006,-0.003 0.009,-0.005 0.002,-0.002 0.005,-0.004 0.007,-0.006 0.0374,-0.0224 0.0753,-0.0443 0.11305,-0.0662 0.002,-0.001 0.01,-0.005 0.007,-0.004 -0.0329,0.0194 -0.0659,0.0385 -0.099,0.0576 -0.002,0.001 0.004,-0.003 0.006,-0.004 0.0447,-0.0242 -0.0267,0.0146 0.11713,-0.0675 0.0336,-0.0192 -0.0669,0.0388 -0.10045,0.0581 -0.002,0.001 0.004,-0.002 0.006,-0.003 0.11364,-0.0652 0.0728,-0.0471 0.11911,-0.0673 0.0149,-0.005 0.0295,-0.0111 0.0438,-0.0179 0.0132,-0.005 0.0269,-0.008 0.0406,-0.0117 0.0161,-0.003 0.032,-0.006 0.0481,-0.009 0.0146,-0.002 0.0289,-0.006 0.0436,-0.006 0.0167,-3e-5 0.0334,-8e-5 0.0502,-9e-5 0.0165,3e-5 0.0331,-1e-5 0.0496,10e-4 0.0155,0.002 0.0305,0.005 0.0447,0.0116 0.0152,0.005 0.031,0.009 0.045,0.0173 0.0112,0.008 0.0217,0.0168 0.0283,0.0289 0.005,0.0111 0.0123,0.0213 0.0185,0.0318 0.006,0.0126 0.0105,0.0258 0.0123,0.0395 0.003,0.0138 0.007,0.027 0.009,0.0411 0.003,0.0135 0.009,0.0261 0.0105,0.0399 0.003,0.0162 0.003,0.0323 0.003,0.0487 2.6e-4,0.0166 6.1e-4,0.0332 0.003,0.0496 0.003,0.0172 0.008,0.0338 0.0106,0.0512 0.003,0.0165 0.003,0.0329 0.003,0.0497 4e-5,0.0167 1e-4,0.0335 6e-5,0.0502 -1.1e-4,0.0168 -2e-4,0.0337 -0.002,0.0505 -0.002,0.0157 -0.007,0.0304 -0.0125,0.0453 -0.005,0.0146 -0.008,0.0298 -0.0141,0.0442 -0.005,0.0176 -0.0157,0.0325 -0.0237,0.0489 -0.0142,0.0276 -0.0321,0.0534 -0.0488,0.0795 0,0 -0.11301,0.0495 -0.11301,0.0495 z"
       inkscape:connector-curvature="0" />
    <path
       style="opacity:0;fill:#000000;fill-opacity:1;stroke:#ffffff;stroke-width:1.54999995;stroke-linejoin:round;stroke-miterlimit:3.86400008;stroke-dasharray:none;stroke-opacity:1"
       id="path4508"
       d="m 102.05917,144.95382 c 0.023,0.0575 0.0564,0.1118 0.0966,0.15899 0.0108,0.0127 0.0227,0.0243 0.0341,0.0365 0.0344,0.0344 0.0734,0.0641 0.11505,0.0892 0.0126,0.008 0.0454,0.008 0.0388,0.0212 -0.009,0.0188 -0.0508,0.0393 -0.0597,0.0202 -0.01,-0.0213 0.0287,-0.0372 0.0431,-0.0557 0.0489,-0.072 0.0781,-0.15452 0.11981,-0.23037 0.0295,-0.0441 0.0512,-0.0407 0.12354,-0.0742 0.002,-7.1e-4 0.0135,0.0125 0.0152,0.014 0.009,0.01 0.0185,0.0203 0.03,0.0281 0.0116,0.008 0.0249,0.0114 0.0374,0.0173 0.0123,0.004 0.0232,0.0107 0.0359,0.0137 0.003,0.002 0.0191,-2.9e-4 0.0207,0.004 0.005,0.0137 0.007,0.0285 0.01,0.0429 0.007,0.0331 0.0116,0.0664 0.0177,0.0995 0.011,0.053 0.0207,0.10752 0.0482,0.15487 0.007,0.0122 0.0183,0.0158 0.031,0.0194 0.0129,0.004 0.0258,0.007 0.0386,0.0114 0.0136,0.004 0.0271,0.009 0.0406,0.0135 0.0135,0.004 0.0265,0.01 0.0403,0.0132 0.0112,0.003 0.0221,0.006 0.0337,0.006 0.009,3.7e-4 0.0189,6.9e-4 0.0284,0.002 0.008,-0.001 0.0161,-0.002 0.0237,-0.005 0.006,-4.8e-4 0.003,0 0.009,-0.001 0,0 -0.0993,0.0751 -0.0993,0.0751 v 0 c -0.006,8.7e-4 -0.003,2.9e-4 -0.009,0.002 -0.009,0.001 -0.0172,0.003 -0.0259,0.001 -0.01,-4.5e-4 -0.0191,-9.5e-4 -0.0286,-0.002 -0.0117,-0.002 -0.0232,-0.005 -0.0347,-0.008 -0.0136,-0.004 -0.027,-0.009 -0.0405,-0.0137 -0.0134,-0.005 -0.0269,-0.009 -0.0404,-0.0132 -0.0129,-0.004 -0.0259,-0.008 -0.0388,-0.0115 -0.0151,-0.005 -0.0274,-0.0133 -0.035,-0.028 -0.0251,-0.0505 -0.0336,-0.10645 -0.044,-0.16137 -0.007,-0.0375 -0.0111,-0.0608 -0.0196,-0.0979 -0.002,-0.01 -0.003,-0.0198 -0.007,-0.0289 -4.9e-4,-0.001 -0.0195,-0.002 -0.0209,-0.004 -0.0125,-0.004 -0.0243,-0.0104 -0.0368,-0.0149 -0.0137,-0.005 -0.0267,-0.0114 -0.0388,-0.0197 -0.0112,-0.009 -0.0208,-0.0189 -0.0307,-0.0289 -3.7e-4,-3.2e-4 -0.007,-0.006 -0.009,-0.007 -6.7e-4,-2.6e-4 -0.003,7.4e-4 -0.002,3.8e-4 0.0346,-0.02 0.0696,-0.0392 0.10409,-0.0593 0.002,-0.001 -0.005,0.001 -0.007,0.003 -0.003,0.002 -0.006,0.006 -0.008,0.009 -0.0494,0.0743 -0.0785,0.16052 -0.12793,0.23497 -0.0562,0.0826 -0.0555,0.0991 -0.18523,0.14437 -0.0141,0.005 -0.0263,-0.0143 -0.0389,-0.0222 -0.0418,-0.0262 -0.0811,-0.0567 -0.11586,-0.0918 -0.0118,-0.0124 -0.0242,-0.0242 -0.0353,-0.0371 -0.0415,-0.048 -0.0739,-0.10334 -0.10426,-0.15871 0,0 0.10827,-0.0602 0.10827,-0.0602 z"
       inkscape:connector-curvature="0" />
    <path
       style="fill:#000000;stroke:#000000;stroke-width:0.26458332px;stroke-linecap:butt;stroke-linejoin:miter;stroke-opacity:1;fill-opacity:1"
       d="m 101.2484,143.08537 1.20271,1.20271 1.20271,-1.20271 0.35079,0.35079 -1.20271,1.20271 1.20271,1.20271 -0.35496,0.35497 -1.20272,-1.20271 -1.20271,1.20271 -0.35497,-0.35497 1.20272,-1.20271 -1.20689,-1.20689 z"
       id="path4512"
       inkscape:connector-curvature="0" />
  </g>
</svg>
